<?xml version="1.0" encoding="UTF-8"?>
<svg id="design-rough" data-name="design-rough" xmlns="http://www.w3.org/2000/svg" viewBox="0 0 440.262 768.375">
  <defs>
    <style>
      .cls-1 {
        fill: none;
        stroke: #000;
        stroke-miterlimit: 10;
      }
    </style>
  </defs>
  <path d="M439.262,46.389v256.492H182.771V46.389h256.492M440.262,45.389H181.771v258.492h258.492V45.389h0Z"/>
  <path d="M146.361,112.488c38.827,0,75.331,15.12,102.786,42.575,27.455,27.455,42.575,63.958,42.575,102.786s-15.12,75.331-42.575,102.785c-27.455,27.455-63.958,42.575-102.786,42.575s-75.331-15.12-102.786-42.575C16.12,333.179,1,296.676,1,257.848s15.12-75.331,42.575-102.786c27.455-27.455,63.958-42.575,102.786-42.575M146.361,111.488C65.528,111.488,0,177.016,0,257.848s65.528,146.361,146.361,146.361,146.361-65.528,146.361-146.361S227.193,111.488,146.361,111.488h0Z"/>
  <path d="M181.771,222.562l127.514,220.86H54.257l127.514-220.86M181.771,220.562L52.525,444.422h258.492l-129.246-223.86h0Z"/>
  <line class="cls-1" x1="98.491" y1="768.187" x2="408.918" y2=".187"/>
</svg>