<?xml version="1.0" encoding="UTF-8" standalone="no"?><!DOCTYPE svg PUBLIC "-//W3C//DTD SVG 1.1//EN" "http://www.w3.org/Graphics/SVG/1.1/DTD/svg11.dtd"><svg width="100%" height="100%" viewBox="0 0 346 260" version="1.1" xmlns="http://www.w3.org/2000/svg" xmlns:xlink="http://www.w3.org/1999/xlink" xml:space="preserve" xmlns:serif="http://www.serif.com/" style="fill-rule:evenodd;clip-rule:evenodd;stroke-linecap:round;stroke-linejoin:round;stroke-miterlimit:1.5;"><rect id="アートボード1" x="0" y="0" width="345.6" height="259.2" style="fill:#fff;"/><clipPath id="_clip1"><rect id="アートボード11" serif:id="アートボード1" x="0" y="0" width="345.6" height="259.2"/></clipPath><g clip-path="url(#_clip1)"><rect id="Title" x="115.68" y="26.64" width="118.8" height="22.56" style="fill:#a4efff;stroke:#000;stroke-width:0.5px;"/><rect id="Grid-Area" serif:id="Grid Area" x="0.72" y="54.72" width="343.92" height="189.6" style="fill:none;stroke:#000;stroke-width:0.5px;"/><rect id="Grid4" x="13.2" y="54.72" width="95.04" height="110.985" style="fill:#a4efff;stroke:#000;stroke-width:0.5px;"/><rect id="Grid3" x="12.48" y="174.72" width="95.04" height="69.84" style="fill:#a4efff;stroke:#000;stroke-width:0.5px;"/><rect id="Grid31" serif:id="Grid3" x="123.6" y="176.048" width="95.04" height="68.247" style="fill:#a4efff;stroke:#000;stroke-width:0.5px;"/><rect id="Grid32" serif:id="Grid3" x="237.84" y="176.313" width="95.04" height="66.919" style="fill:#a4efff;stroke:#000;stroke-width:0.5px;"/><rect id="Grid2" x="238.08" y="54.855" width="95.04" height="110.985" style="fill:#a4efff;stroke:#000;stroke-width:0.5px;"/><rect id="Grid1" x="125.52" y="54.63" width="95.04" height="110.985" style="fill:#a4efff;stroke:#000;stroke-width:0.5px;"/><g transform="matrix(12,0,0,12,188.642253,256.675666)"></g><text x="153.961px" y="256.676px" style="font-family:'ArialMT', 'Arial', sans-serif;font-size:12px;">Footer</text><g transform="matrix(12,0,0,12,192.514128,41.395666)"></g><text x="155.161px" y="41.396px" style="font-family:'ArialMT', 'Arial', sans-serif;font-size:12px;">Desgin</text><g transform="matrix(0.24,0,0,0.24,-114.72,82.08)"><text x="538.503px" y="170.482px" style="font-family:'ArialMT', 'Arial', sans-serif;font-size:33.333px;">h333-480</text><text x="679.372px" y="170.482px" style="font-family:'HiraginoSans-W4', 'Hiragino Sans', sans-serif;font-size:33.333px;">前後</text></g><g transform="matrix(0.24,0,0,0.24,-96.24,23.52)"><text x="538.503px" y="170.482px" style="font-family:'ArialMT', 'Arial', sans-serif;font-size:33.333px;">w250-320</text><text x="684.906px" y="170.482px" style="font-family:'HiraginoSans-W4', 'Hiragino Sans', sans-serif;font-size:33.333px;">前後</text></g><g transform="matrix(12,0,0,12,67.659519,38.515666)"></g><text x="8.281px" y="38.516px" style="font-family:'ArialMT', 'Arial', sans-serif;font-size:12px;">w768-1440</text><g transform="matrix(12,0,0,12,60.233816,14.755666)"></g><text x="4.201px" y="14.756px" style="font-family:'ArialMT', 'Arial', sans-serif;font-size:12px;">PC Layout</text><g transform="matrix(12,0,0,12,191.878034,14.275666)"></g><text x="152.521px" y="14.276px" style="font-family:'ArialMT', 'Arial', sans-serif;font-size:12px;">Header</text><path id="Footer" d="M0,20.884l345.6,0" style="fill:none;stroke:#000;stroke-width:0.5px;"/><path id="Header" d="M0.24,244.564l345.6,0" style="fill:none;stroke:#000;stroke-width:0.5px;"/></g></svg>